{
    "asset" : {
        "generator" : "Khronos glTF Blender I/O v3.2.43",
        "version" : "2.0"
    },
    "scene" : 0,
    "scenes" : [
        {
            "name" : "Scene",
            "nodes" : [
                0
            ]
        }
    ],
    "nodes" : [
        {
            "mesh" : 0,
            "name" : "Gypsum",
            "translation" : [
                -1.586565613746643,
                1.830706238746643,
                -4.9318060874938965
            ]
        }
    ],
    "materials" : [
        {
            "doubleSided" : true,
            "name" : "Madera3",
            "normalTexture" : {
                "index" : 0
            },
            "pbrMetallicRoughness" : {
                "baseColorTexture" : {
                    "index" : 1
                },
                "metallicFactor" : 0,
                "roughnessFactor" : 0.5
            }
        }
    ],
    "meshes" : [
        {
            "name" : "Cube.012",
            "primitives" : [
                {
                    "attributes" : {
                        "POSITION" : 0,
                        "NORMAL" : 1,
                        "TEXCOORD_0" : 2
                    },
                    "indices" : 3,
                    "material" : 0
                }
            ]
        }
    ],
    "textures" : [
        {
            "sampler" : 0,
            "source" : 0
        },
        {
            "sampler" : 0,
            "source" : 1
        }
    ],
    "images" : [
        {
            "bufferView" : 4,
            "mimeType" : "image/jpeg",
            "name" : "Wood_Flooring_AI_04D_BUMP"
        },
        {
            "bufferView" : 5,
            "mimeType" : "image/jpeg",
            "name" : "Wood_Flooring_AI_04D_COLOR"
        }
    ],
    "accessors" : [
        {
            "bufferView" : 0,
            "componentType" : 5126,
            "count" : 1319,
            "max" : [
                2.822904109954834,
                3.153433322906494,
                0.6872343420982361
            ],
            "min" : [
                -2.822904109954834,
                -1.8920345306396484,
                -0.15150482952594757
            ],
            "type" : "VEC3"
        },
        {
            "bufferView" : 1,
            "componentType" : 5126,
            "count" : 1319,
            "type" : "VEC3"
        },
        {
            "bufferView" : 2,
            "componentType" : 5126,
            "count" : 1319,
            "type" : "VEC2"
        },
        {
            "bufferView" : 3,
            "componentType" : 5123,
            "count" : 2781,
            "type" : "SCALAR"
        }
    ],
    "bufferViews" : [
        {
            "buffer" : 0,
            "byteLength" : 15828,
            "byteOffset" : 0
        },
        {
            "buffer" : 0,
            "byteLength" : 15828,
            "byteOffset" : 15828
        },
        {
            "buffer" : 0,
            "byteLength" : 10552,
            "byteOffset" : 31656
        },
        {
            "buffer" : 0,
            "byteLength" : 5562,
            "byteOffset" : 42208
        },
        {
            "buffer" : 0,
            "byteLength" : 670448,
            "byteOffset" : 47772
        },
        {
            "buffer" : 0,
            "byteLength" : 817152,
            "byteOffset" : 718220
        }
    ],
    "samplers" : [
        {
            "magFilter" : 9729,
            "minFilter" : 9987
        }
    ],
    "buffers" : [
        {
            "byteLength" : 1535372,
            "uri" : "data:application/octet-stream;base64,"
        }
    ]
}
