{
    "asset" : {
        "generator" : "Khronos glTF Blender I/O v3.2.43",
        "version" : "2.0"
    },
    "scene" : 0,
    "scenes" : [
        {
            "name" : "Scene",
            "nodes" : [
                0,
                1,
                2,
                3
            ]
        }
    ],
    "nodes" : [
        {
            "mesh" : 0,
            "name" : "Cube.005",
            "rotation" : [
                0,
                0,
                -0.4916014075279236,
                0.8708203434944153
            ],
            "translation" : [
                -3.5276224613189697,
                1.3597244024276733,
                2.1083483695983887
            ]
        },
        {
            "mesh" : 1,
            "name" : "Cube.007",
            "rotation" : [
                -0.22765092551708221,
                -0.7174293994903564,
                -0.5875167846679688,
                0.29714351892471313
            ],
            "translation" : [
                -3.3503828048706055,
                1.5005390644073486,
                -3.4912877082824707
            ]
        },
        {
            "mesh" : 2,
            "name" : "Cube.008",
            "rotation" : [
                -0.022340863943099976,
                0.7764697670936584,
                0.6296840310096741,
                0.009677311405539513
            ],
            "translation" : [
                -1.2998089790344238,
                1.4177128076553345,
                -3.89369535446167
            ]
        },
        {
            "mesh" : 3,
            "name" : "Cube.006",
            "rotation" : [
                0,
                0,
                -0.4916014075279236,
                0.8708203434944153
            ],
            "translation" : [
                -3.5276224613189697,
                1.3597244024276733,
                -0.5902004241943359
            ]
        }
    ],
    "materials" : [
        {
            "doubleSided" : true,
            "name" : "Material",
            "normalTexture" : {
                "index" : 0
            },
            "pbrMetallicRoughness" : {
                "baseColorTexture" : {
                    "index" : 1
                },
                "metallicFactor" : 0,
                "roughnessFactor" : 0.5
            }
        }
    ],
    "meshes" : [
        {
            "name" : "Cube.005",
            "primitives" : [
                {
                    "attributes" : {
                        "POSITION" : 0,
                        "NORMAL" : 1,
                        "TEXCOORD_0" : 2
                    },
                    "indices" : 3,
                    "material" : 0
                }
            ]
        },
        {
            "name" : "Cube.007",
            "primitives" : [
                {
                    "attributes" : {
                        "POSITION" : 4,
                        "NORMAL" : 5,
                        "TEXCOORD_0" : 6
                    },
                    "indices" : 3,
                    "material" : 0
                }
            ]
        },
        {
            "name" : "Cube.008",
            "primitives" : [
                {
                    "attributes" : {
                        "POSITION" : 7,
                        "NORMAL" : 8,
                        "TEXCOORD_0" : 9
                    },
                    "indices" : 3,
                    "material" : 0
                }
            ]
        },
        {
            "name" : "Cube.006",
            "primitives" : [
                {
                    "attributes" : {
                        "POSITION" : 10,
                        "NORMAL" : 11,
                        "TEXCOORD_0" : 12
                    },
                    "indices" : 3,
                    "material" : 0
                }
            ]
        }
    ],
    "textures" : [
        {
            "sampler" : 0,
            "source" : 0
        },
        {
            "sampler" : 0,
            "source" : 1
        }
    ],
    "images" : [
        {
            "bufferView" : 4,
            "mimeType" : "image/jpeg",
            "name" : "Leather_AI_02_DISP"
        },
        {
            "bufferView" : 5,
            "mimeType" : "image/jpeg",
            "name" : "Leather_AI_02_COLOR"
        }
    ],
    "accessors" : [
        {
            "bufferView" : 0,
            "componentType" : 5126,
            "count" : 2996,
            "max" : [
                0.5382025241851807,
                0.29839569330215454,
                0.539465606212616
            ],
            "min" : [
                -0.5360416769981384,
                -0.29509302973747253,
                -0.5471449494361877
            ],
            "type" : "VEC3"
        },
        {
            "bufferView" : 1,
            "componentType" : 5126,
            "count" : 2996,
            "type" : "VEC3"
        },
        {
            "bufferView" : 2,
            "componentType" : 5126,
            "count" : 2996,
            "type" : "VEC2"
        },
        {
            "bufferView" : 3,
            "componentType" : 5123,
            "count" : 13734,
            "type" : "SCALAR"
        },
        {
            "bufferView" : 6,
            "componentType" : 5126,
            "count" : 2996,
            "max" : [
                0.5382025241851807,
                0.29839569330215454,
                0.539465606212616
            ],
            "min" : [
                -0.5360416769981384,
                -0.29509302973747253,
                -0.5471449494361877
            ],
            "type" : "VEC3"
        },
        {
            "bufferView" : 7,
            "componentType" : 5126,
            "count" : 2996,
            "type" : "VEC3"
        },
        {
            "bufferView" : 8,
            "componentType" : 5126,
            "count" : 2996,
            "type" : "VEC2"
        },
        {
            "bufferView" : 9,
            "componentType" : 5126,
            "count" : 2996,
            "max" : [
                0.5382025241851807,
                0.29839569330215454,
                0.539465606212616
            ],
            "min" : [
                -0.5360416769981384,
                -0.29509302973747253,
                -0.5471449494361877
            ],
            "type" : "VEC3"
        },
        {
            "bufferView" : 10,
            "componentType" : 5126,
            "count" : 2996,
            "type" : "VEC3"
        },
        {
            "bufferView" : 11,
            "componentType" : 5126,
            "count" : 2996,
            "type" : "VEC2"
        },
        {
            "bufferView" : 12,
            "componentType" : 5126,
            "count" : 2996,
            "max" : [
                0.5382025241851807,
                0.29839569330215454,
                0.539465606212616
            ],
            "min" : [
                -0.5360416769981384,
                -0.29509302973747253,
                -0.5471449494361877
            ],
            "type" : "VEC3"
        },
        {
            "bufferView" : 13,
            "componentType" : 5126,
            "count" : 2996,
            "type" : "VEC3"
        },
        {
            "bufferView" : 14,
            "componentType" : 5126,
            "count" : 2996,
            "type" : "VEC2"
        }
    ],
    "bufferViews" : [
        {
            "buffer" : 0,
            "byteLength" : 35952,
            "byteOffset" : 0
        },
        {
            "buffer" : 0,
            "byteLength" : 35952,
            "byteOffset" : 35952
        },
        {
            "buffer" : 0,
            "byteLength" : 23968,
            "byteOffset" : 71904
        },
        {
            "buffer" : 0,
            "byteLength" : 27468,
            "byteOffset" : 95872
        },
        {
            "buffer" : 0,
            "byteLength" : 458830,
            "byteOffset" : 123340
        },
        {
            "buffer" : 0,
            "byteLength" : 469073,
            "byteOffset" : 582172
        },
        {
            "buffer" : 0,
            "byteLength" : 35952,
            "byteOffset" : 1051248
        },
        {
            "buffer" : 0,
            "byteLength" : 35952,
            "byteOffset" : 1087200
        },
        {
            "buffer" : 0,
            "byteLength" : 23968,
            "byteOffset" : 1123152
        },
        {
            "buffer" : 0,
            "byteLength" : 35952,
            "byteOffset" : 1147120
        },
        {
            "buffer" : 0,
            "byteLength" : 35952,
            "byteOffset" : 1183072
        },
        {
            "buffer" : 0,
            "byteLength" : 23968,
            "byteOffset" : 1219024
        },
        {
            "buffer" : 0,
            "byteLength" : 35952,
            "byteOffset" : 1242992
        },
        {
            "buffer" : 0,
            "byteLength" : 35952,
            "byteOffset" : 1278944
        },
        {
            "buffer" : 0,
            "byteLength" : 23968,
            "byteOffset" : 1314896
        }
    ],
    "samplers" : [
        {
            "magFilter" : 9729,
            "minFilter" : 9987
        }
    ],
    "buffers" : [
        {
            "byteLength" : 1338864,
            "uri" : "data:application/octet-stream;base64,"
        }
    ]
}
