{
    "asset" : {
        "generator" : "Khronos glTF Blender I/O v3.2.43",
        "version" : "2.0"
    },
    "scene" : 0,
    "scenes" : [
        {
            "name" : "Scene",
            "nodes" : [
                0
            ]
        }
    ],
    "nodes" : [
        {
            "mesh" : 0,
            "name" : "ventana marcos",
            "translation" : [
                -5.133884906768799,
                2.5,
                3.3678929805755615
            ]
        }
    ],
    "materials" : [
        {
            "doubleSided" : true,
            "name" : "Metal",
            "pbrMetallicRoughness" : {
                "baseColorFactor" : [
                    0.037595756351947784,
                    0.037595756351947784,
                    0.037595756351947784,
                    1
                ],
                "metallicFactor" : 0,
                "roughnessFactor" : 0.5
            }
        }
    ],
    "meshes" : [
        {
            "name" : "Plane.005",
            "primitives" : [
                {
                    "attributes" : {
                        "POSITION" : 0,
                        "NORMAL" : 1,
                        "TEXCOORD_0" : 2
                    },
                    "indices" : 3,
                    "material" : 0
                }
            ]
        }
    ],
    "accessors" : [
        {
            "bufferView" : 0,
            "componentType" : 5126,
            "count" : 624,
            "max" : [
                0.10002067685127258,
                1.899999976158142,
                0.7350000143051147
            ],
            "min" : [
                0,
                -1.899999976158142,
                -7.438199996948242
            ],
            "type" : "VEC3"
        },
        {
            "bufferView" : 1,
            "componentType" : 5126,
            "count" : 624,
            "type" : "VEC3"
        },
        {
            "bufferView" : 2,
            "componentType" : 5126,
            "count" : 624,
            "type" : "VEC2"
        },
        {
            "bufferView" : 3,
            "componentType" : 5123,
            "count" : 1242,
            "type" : "SCALAR"
        }
    ],
    "bufferViews" : [
        {
            "buffer" : 0,
            "byteLength" : 7488,
            "byteOffset" : 0
        },
        {
            "buffer" : 0,
            "byteLength" : 7488,
            "byteOffset" : 7488
        },
        {
            "buffer" : 0,
            "byteLength" : 4992,
            "byteOffset" : 14976
        },
        {
            "buffer" : 0,
            "byteLength" : 2484,
            "byteOffset" : 19968
        }
    ],
    "buffers" : [
        {
            "byteLength" : 22452,
            "uri" : "data:application/octet-stream;base64,"
        }
    ]
}
