{
    "asset" : {
        "generator" : "Khronos glTF Blender I/O v3.2.43",
        "version" : "2.0"
    },
    "scene" : 0,
    "scenes" : [
        {
            "name" : "Scene",
            "nodes" : [
                0
            ]
        }
    ],
    "nodes" : [
        {
            "mesh" : 0,
            "name" : "TV",
            "rotation" : [
                0.5000000596046448,
                -0.5,
                0.5,
                0.5
            ],
            "scale" : [
                1.5355628728866577,
                1.5355628728866577,
                1.5355628728866577
            ],
            "translation" : [
                4.129847049713135,
                1.8393762111663818,
                0.40029510855674744
            ]
        }
    ],
    "materials" : [
        {
            "doubleSided" : true,
            "name" : "Tv",
            "pbrMetallicRoughness" : {
                "baseColorFactor" : [
                    0.0729631632566452,
                    0.0729631632566452,
                    0.0729631632566452,
                    1
                ],
                "metallicFactor" : 0,
                "roughnessFactor" : 0.5
            }
        }
    ],
    "meshes" : [
        {
            "name" : "meshId0_name",
            "primitives" : [
                {
                    "attributes" : {
                        "POSITION" : 0,
                        "NORMAL" : 1,
                        "TEXCOORD_0" : 2
                    },
                    "indices" : 3,
                    "material" : 0
                }
            ]
        }
    ],
    "accessors" : [
        {
            "bufferView" : 0,
            "componentType" : 5126,
            "count" : 540,
            "max" : [
                1,
                0.154339998960495,
                0.6027820110321045
            ],
            "min" : [
                -1,
                -0.154339998960495,
                -0.6027820110321045
            ],
            "type" : "VEC3"
        },
        {
            "bufferView" : 1,
            "componentType" : 5126,
            "count" : 540,
            "type" : "VEC3"
        },
        {
            "bufferView" : 2,
            "componentType" : 5126,
            "count" : 540,
            "type" : "VEC2"
        },
        {
            "bufferView" : 3,
            "componentType" : 5123,
            "count" : 1476,
            "type" : "SCALAR"
        }
    ],
    "bufferViews" : [
        {
            "buffer" : 0,
            "byteLength" : 6480,
            "byteOffset" : 0
        },
        {
            "buffer" : 0,
            "byteLength" : 6480,
            "byteOffset" : 6480
        },
        {
            "buffer" : 0,
            "byteLength" : 4320,
            "byteOffset" : 12960
        },
        {
            "buffer" : 0,
            "byteLength" : 2952,
            "byteOffset" : 17280
        }
    ],
    "buffers" : [
        {
            "byteLength" : 20232,
            "uri" : "data:application/octet-stream;base64,"
        }
    ]
}
