{
    "asset" : {
        "generator" : "Khronos glTF Blender I/O v3.2.43",
        "version" : "2.0"
    },
    "scene" : 0,
    "scenes" : [
        {
            "name" : "Scene",
            "nodes" : [
                0
            ]
        }
    ],
    "nodes" : [
        {
            "mesh" : 0,
            "name" : "candle 2 low.005",
            "translation" : [
                0.3349025547504425,
                3.5359675884246826,
                -4.7911057472229
            ]
        }
    ],
    "materials" : [
        {
            "doubleSided" : true,
            "name" : "candle 2 low",
            "pbrMetallicRoughness" : {
                "baseColorTexture" : {
                    "index" : 0
                },
                "metallicFactor" : 0,
                "metallicRoughnessTexture" : {
                    "index" : 1
                }
            }
        }
    ],
    "meshes" : [
        {
            "name" : "Cylinder.006",
            "primitives" : [
                {
                    "attributes" : {
                        "POSITION" : 0,
                        "NORMAL" : 1,
                        "TEXCOORD_0" : 2
                    },
                    "indices" : 3,
                    "material" : 0
                }
            ]
        }
    ],
    "textures" : [
        {
            "sampler" : 0,
            "source" : 0
        },
        {
            "sampler" : 0,
            "source" : 1
        }
    ],
    "images" : [
        {
            "bufferView" : 4,
            "mimeType" : "image/png",
            "name" : "candle_1_BaseColor"
        },
        {
            "bufferView" : 5,
            "mimeType" : "image/png",
            "name" : "Image"
        }
    ],
    "accessors" : [
        {
            "bufferView" : 0,
            "componentType" : 5126,
            "count" : 667,
            "max" : [
                0.038084812462329865,
                0.2521911859512329,
                0.03886151686310768
            ],
            "min" : [
                -0.04300258308649063,
                -4.9345195293426514e-05,
                -0.045181214809417725
            ],
            "type" : "VEC3"
        },
        {
            "bufferView" : 1,
            "componentType" : 5126,
            "count" : 667,
            "type" : "VEC3"
        },
        {
            "bufferView" : 2,
            "componentType" : 5126,
            "count" : 667,
            "type" : "VEC2"
        },
        {
            "bufferView" : 3,
            "componentType" : 5123,
            "count" : 2394,
            "type" : "SCALAR"
        }
    ],
    "bufferViews" : [
        {
            "buffer" : 0,
            "byteLength" : 8004,
            "byteOffset" : 0
        },
        {
            "buffer" : 0,
            "byteLength" : 8004,
            "byteOffset" : 8004
        },
        {
            "buffer" : 0,
            "byteLength" : 5336,
            "byteOffset" : 16008
        },
        {
            "buffer" : 0,
            "byteLength" : 4788,
            "byteOffset" : 21344
        },
        {
            "buffer" : 0,
            "byteLength" : 704857,
            "byteOffset" : 26132
        },
        {
            "buffer" : 0,
            "byteLength" : 90,
            "byteOffset" : 730992
        }
    ],
    "samplers" : [
        {
            "magFilter" : 9729,
            "minFilter" : 9987
        }
    ],
    "buffers" : [
        {
            "byteLength" : 731084,
            "uri" : "data:application/octet-stream;base64,"
        }
    ]
}
