<svg id="Layer_1" data-name="Layer 1" xmlns="http://www.w3.org/2000/svg" viewBox="0 0 841.89 595.28"><title>LogoSVG</title><path d="M150.66,339.7c1,4.41,2.87,8.64,4.14,13,2,7,3.89,14,5.82,21.06l-2.4,1.57c-1.58-1.92-3.87-3.64-4.61-5.79-3.16-9.22-5.94-18.55-8.7-27.87-1.55-5.22-4.36-8.09-11-7.3a65.22,65.22,0,0,1-14.91,0c-6.67-.74-9.59,2.28-11,7.52-1.52,5.61-2.77,11.3-4.71,16.78-.67,1.91-3.06,3.31-4.67,4.94l-2.76-1.36c2.7-9.11,5.4-18.22,8.4-28.39-4.41.62-7.7.72-10.74,1.57-6.39,1.79-10-.11-11.21-6.05-.47-2.3-1.11-4.56-1.91-7.8,6.8-.4,13.08-1.09,19.36-1.08l46.5-.18Z"/><path d="M41.91,328.27c-2.2-9-4.64-17.95-6.52-27-1.63-7.8-2.46-15.74-4-23.56-1.88-9.75,1.39-12.8,12-11.38,12.87,1.73,25.83,2.87,38.66,4.8,2.67.4,6.24,2.67,7.15,4.85,5.23,12.59,9.78,25.42,14.93,39.14l-23.32,2.16c-7.35-6.18-3.37-11.54,1.23-17.35-16.52,6.07-36.55,7-38,29.58Z"/><path d="M34,370.44c3-11.31,5.91-22.63,9-34.37l4.65,1.81c3-8.06,9.36-11.43,18.48-12.66,7.56-1,10.26,1.57,11.13,7.62.3,2.1.91,4.15,1.36,6.13-20.56,9.68-21.85,9.57-29.71,1.21-6.68,9.47-3.95,22.14-11,31.49Z"/><path d="M139.19,314.73c-1.45-1.85-3.65-3.54-4.18-5.59-1.16-4.53-3.17-5.32-7.34-2.77-4.77,2.93-9.7,5.63-15.09,8.74-1.3-5.24-1-8.74,5.75-10.78,7.5-2.27,14.46-6,21.77-8.85,1.91-.75,4.26-.54,8-1-3.64,4-7.06,6.28-7.81,9.1s1,6.39,1.73,9.62C141.08,313.74,140.13,314.23,139.19,314.73Z"/><path d="M85.71,338.49c4.49,14.37,8.86,28.26,13.1,42.18a2.77,2.77,0,0,1-1.16,2.54,3.41,3.41,0,0,1-3.06-.32,17.27,17.27,0,0,1-3.52-5.48c-3.4-10.2-6.71-20.44-9.73-30.74C80.45,343.65,79,339.78,85.71,338.49Z"/><path d="M53.5,324.42c-.13-8.6,7.48-14.83,15.22-13a5.58,5.58,0,0,1,3.36,4c.15,1.29-1.39,3.51-2.77,4C64.39,321.35,59.22,322.68,53.5,324.42Z"/><path d="M709.65,290.69a10.17,10.17,0,0,1-.77,1.59,4.07,4.07,0,0,1-6,.78c-1.45-1.21-2.8-2.55-4.29-3.7a38.58,38.58,0,0,0-17.67-7.66,39.76,39.76,0,0,0-26.82,4.85,39,39,0,0,0-7.94,6.06,4.16,4.16,0,0,1-3.95,1.31,3.94,3.94,0,0,1-3.14-2.88,4.07,4.07,0,0,1,1.25-4.27,48.19,48.19,0,0,1,38.09-13.68,47.45,47.45,0,0,1,26.24,10.54,41.33,41.33,0,0,1,3.74,3.38,10.49,10.49,0,0,1,1.27,2.16Z"/><path d="M675.89,286.8c7.72.11,15.77,3.36,22.49,9.85a4,4,0,0,1,1.26,4.14,4.12,4.12,0,0,1-6.56,2.15c-1.08-.89-2.1-1.87-3.22-2.71a25.24,25.24,0,0,0-14.46-5.14,25.65,25.65,0,0,0-18.77,6.79c-.39.35-.78.71-1.19,1a4.13,4.13,0,0,1-5.53-.33,4,4,0,0,1-.16-5.52,30.93,30.93,0,0,1,8.41-6.31C663.2,288.1,668.58,286.79,675.89,286.8Z"/><path d="M674.26,300a21,21,0,0,1,14.84,6.08,4.09,4.09,0,0,1,.23,5.78,4,4,0,0,1-5.71.33,14.57,14.57,0,0,0-5.29-3.28,12.66,12.66,0,0,0-12.59,2.55,5.45,5.45,0,0,1-2.88,1.65,4.1,4.1,0,0,1-3.46-7A21,21,0,0,1,674.26,300Z"/><path d="M680.36,320.7a6.11,6.11,0,1,1-6.1-6.19A6.16,6.16,0,0,1,680.36,320.7Z"/><polygon points="147.44 328.28 589.82 328.28 675.83 225.97 752.21 328.28 757.66 322.83 675.83 214.74 586.5 320.18 146.11 320.18 147.44 328.28"/></svg>